<?xml version="1.0" encoding="UTF-8"?>
<svg width="3186px" height="4172px" viewBox="0 0 3186 4172" version="1.1" xmlns="http://www.w3.org/2000/svg" xmlns:xlink="http://www.w3.org/1999/xlink">
    <title>Artboard</title>
    <defs>
        <filter id="filter-1">
            <feColorMatrix in="SourceGraphic" type="matrix" values="0 0 0 0 1.000000 0 0 0 0 0.913725 0 0 0 0 0.164706 0 0 0 1.000000 0"></feColorMatrix>
        </filter>
        <filter id="filter-2">
            <feColorMatrix in="SourceGraphic" type="matrix" values="0 0 0 0 0.039216 0 0 0 0 0.647059 0 0 0 0 0.772549 0 0 0 1.000000 0"></feColorMatrix>
        </filter>
    </defs>
    <g id="Artboard" stroke="none" stroke-width="1" fill="none" fill-rule="evenodd">
        <g id="Group-4" transform="translate(1194.500000, 64.000000)">
            <rect id="Rectangle" fill="#9BE0D6" x="0.5" y="0" width="867" height="3558" rx="433.5"></rect>
            <text id="friendship-&amp;-gaming" transform="translate(434.000000, 1428.000000) rotate(90.000000) translate(-434.000000, -1428.000000) " font-family="ComicSansMS-Bold, Comic Sans MS" font-size="232" font-weight="bold" letter-spacing="3.69090903" fill="#FFE92A">
                <tspan x="-707.424964" y="1522">friendship &amp; gaming</tspan>
            </text>
        </g>
        <g id="Group-5" transform="translate(49.385657, 2444.584747)">
            <g filter="url(#filter-1)" id="Group-2">
                <g>
                    <ellipse id="Oval" fill="#FFF48A" cx="833.114343" cy="829.915253" rx="512.5" ry="515.5"></ellipse>
                    <path d="M522.614343,1222.41525 C498.559556,1202.91422 468.571584,1186.90194 447.6195,1164.06272 C421.129014,1135.18626 412.509868,1098.5459 396.598518,1063.94191 C375.628501,1018.33634 380.663096,1049.0168 365.862988,1001.28927 C361.102189,985.936608 366.954674,993.24032 370.165962,980.405063 C370.370863,979.586091 368.113342,980.531156 367.707119,979.790973 C364.485792,973.921358 361.922479,967.684599 359.715881,961.363857 C358.828184,958.82107 358.637633,956.067445 358.48646,953.378626 C356.277101,914.082207 358.778957,890.693074 360.330592,851.415253" id="Path-25" stroke="#FFF542" stroke-width="19" stroke-linecap="round" stroke-linejoin="round"></path>
                    <path d="M359.937397,849.415253 C355.005697,809.057166 351.104258,795.678717 353.187788,758.584699 C355.662584,714.524801 388.190714,660.552888 405.957459,621.1118 C422.406562,584.595799 412.946075,591.396254 434.796698,556.671414 C493.394202,463.548717 451.866796,530.336299 493.702378,478.729232 C511.137459,457.22186 525.175452,438.558772 550.153654,424.72205 C651.289108,368.697875 718.861832,358.143787 841.614343,339.415253" id="Path-26" stroke="#FFF542" stroke-width="19" stroke-linecap="round" stroke-linejoin="round"></path>
                    <path d="M841.614343,339.415253 C918.278756,341.701987 990.937622,353.468434 1058.92664,390.3276 C1064.14248,393.155289 1066.64937,399.682339 1071.81782,402.595636 C1131.48207,436.22657 1082.73578,395.964937 1146.09658,438.172939 C1151.75624,441.94314 1155.03932,448.485249 1160.2158,452.894581 C1173.68965,464.371634 1183.82878,468.007148 1194.59267,480.497661 C1212.6739,501.479263 1230.35124,523.771863 1249.2272,544.291446 C1274.84916,572.144423 1290.16271,581.907906 1303.86203,620.353267 C1325.61824,681.409234 1319.60826,752.328792 1316.13949,815.415253" id="Path-27" stroke="#FFF542" stroke-width="19" stroke-linecap="round" stroke-linejoin="round"></path>
                    <path d="M1315.61434,815.415253 C1310.51235,838.719287 1303.52653,861.688321 1300.30838,885.327351 C1298.59857,897.886783 1302.15259,910.733959 1300.92048,923.3494 C1299.29546,939.987739 1289.48527,1006.07631 1281.32865,1032.50948 C1267.25251,1078.12604 1250.49402,1093.89396 1222.55318,1142.28281 C1205.26448,1172.22396 1190.49391,1210.61165 1158.87976,1229.36557 C1141.34634,1239.76662 1123.36948,1249.39869 1105.61434,1259.41525" id="Path-28" stroke="#FFF542" stroke-width="19" stroke-linecap="round" stroke-linejoin="round"></path>
                    <path d="M1099.61434,1262.8877 C1066.38046,1293.53644 1009.71335,1301.9083 967.058734,1308.87155 C951.20724,1311.45926 935.08949,1312.10635 919.191202,1314.38961 C902.347537,1316.80865 885.828337,1321.57791 868.868947,1322.97326 C850.928087,1324.44937 832.845059,1322.11098 814.864167,1322.97326 C764.661679,1325.38075 824.596933,1332.36128 754.109194,1325.42574 C701.923569,1320.291 725.024048,1320.80008 684.149306,1310.7109 C652.364301,1302.86536 658.516696,1309.48956 623.394922,1292.93048 C606.770224,1285.09233 578.387916,1267.41343 565.708794,1254.30405 C561.293629,1249.73905 533.414806,1209.70965 516.614343,1203.41525" id="Path-29" stroke="#FFF542" stroke-width="19" stroke-linecap="round" stroke-linejoin="round"></path>
                    <path d="M353.813653,1143.41525 C334.680173,1159.38357 325.915703,1183.56787 312.77604,1204.14426 C296.277819,1229.98008 277.071203,1258.98158 265.613262,1287.56855 C240.425933,1350.40965 260.066144,1315.78931 250.300867,1366.08554 C248.384041,1375.95818 228.937824,1417.48079 231.925816,1423.13303 C233.072168,1425.30153 237.128213,1424.31387 239.275837,1423.13303 C247.868195,1418.40863 254.642482,1410.80987 263.163403,1405.95744 C275.547726,1398.9049 289.567598,1394.94998 301.751156,1387.55502 C327.814078,1371.73583 314.664156,1369.30162 337.888756,1364.24529 C347.171797,1362.22424 357.051619,1362.95998 366.063981,1359.9514 C372.675031,1357.74444 377.342119,1351.46612 383.82653,1348.90995 C396.692012,1343.83834 411.166144,1343.22937 423.639287,1337.25508 C430.416744,1334.00887 433.553162,1325.47008 440.176833,1321.91973 C448.435605,1317.49296 458.525794,1317.66116 467.126908,1313.94535 C469.264379,1313.02193 469.500467,1309.75164 471.41442,1308.42463 C474.943573,1305.97773 479.775215,1305.68065 483.051952,1302.9039 C487.921126,1298.7777 491.889216,1293.57858 495.301986,1288.18197 C495.966467,1287.13122 495.480427,1285.46037 494.689484,1284.50148 C491.470084,1280.59851 487.957548,1276.74609 483.664453,1274.07345 C465.18891,1262.5716 445.403249,1253.30507 426.701502,1242.17592 C417.208838,1236.52697 406.720644,1231.81316 399.138926,1223.77351 C385.595911,1209.41249 374.735579,1192.64324 364.226329,1175.92722 C360.750376,1170.39837 359.73465,1163.65894 357.488811,1157.5248 L353.813653,1143.41525 Z" id="Path-30" stroke="#FFF542" stroke-width="19" fill="#FF836D" stroke-linecap="round" stroke-linejoin="round"></path>
                    <path d="M715.614343,1393.20597 C741.154331,1478.41608 707.167198,1359.7214 730.928127,1464.93954 C735.598191,1485.61951 747.617817,1496.34372 755.718008,1516.69192 C768.572702,1548.98372 764.694968,1562.9915 783.282819,1589.03784 C790.004727,1598.45696 799.267088,1605.80442 806.559771,1614.78809 C817.001987,1627.65158 828.021008,1646.14485 836.574787,1660.77067 C838.566933,1664.17697 838.675218,1675.09058 840.862647,1671.80649 C849.819904,1658.35854 860.73856,1588.20549 862.301944,1582.90654 C877.078575,1532.82243 873.520955,1562.29108 892.929512,1527.11419 C896.522494,1520.60212 897.488962,1512.8819 900.89268,1506.26876 C904.471702,1499.31501 910.901454,1493.93118 913.756258,1486.64952 C917.340253,1477.50795 917.025059,1467.22865 919.881772,1457.83392 C921.344065,1453.02495 924.828397,1449.04179 926.619837,1444.3457 C927.571018,1441.85226 945.97586,1392.09507 945.608929,1391.619 C940.987619,1385.62313 930.484126,1389.76393 922.944382,1390.3928 C910.76769,1391.40842 899.021855,1396.46143 886.803117,1396.52381 C858.769907,1396.66693 830.916861,1391.00576 802.883287,1391.00576 C571.803991,1391.00576 1021.8582,1407.31035 727.53947,1394.68436 L715.614343,1393.20597 Z" id="Path-31" stroke="#FFF542" stroke-width="19" fill="#FF836D" stroke-linecap="round" stroke-linejoin="round"></path>
                    <path d="M1142.61434,1304.93209 C1153.63948,1296.76457 1165.46473,1289.57909 1175.68974,1280.42955 C1181.10784,1275.58134 1184.06974,1268.46438 1189.16491,1263.27778 C1195.55911,1256.76883 1203.32374,1251.74338 1209.99016,1245.51359 C1215.79281,1240.09099 1220.32661,1233.32338 1226.52801,1228.36181 C1232.67997,1223.4398 1240.69984,1221.16842 1246.74061,1216.11055 C1249.69435,1213.63741 1250.14173,1209.03374 1252.86568,1206.30953 C1277.40276,1181.77021 1274.87974,1195.44383 1295.12884,1162.81739 C1300.43102,1154.27423 1299.0763,1129.5815 1307.37899,1135.25218 C1320.1861,1143.99935 1314.95301,1165.38865 1320.2415,1179.96916 C1326.75025,1197.91395 1338.16966,1214.92282 1344.12944,1233.26232 C1359.05088,1279.17877 1337.81788,1258.00422 1368.62974,1319.63375 C1383.6799,1349.73691 1404.99635,1376.30045 1421.91774,1405.39277 C1423.26799,1407.7142 1424.23339,1410.90179 1423.14275,1413.35595 C1422.21566,1415.4421 1418.84384,1415.04916 1417.01768,1416.41891 C1415.51183,1417.5484 1415.18628,1420.32711 1413.34263,1420.70671 C1379.30466,1427.71492 1315.41289,1380.52041 1307.3787,1376.60214 C1282.42537,1364.43244 1256.24164,1353.79967 1231.42777,1341.07347 C1206.0091,1328.03709 1185.4392,1312.07902 1157.31423,1306.15751 L1142.61434,1304.93209 Z" id="Path-32" stroke="#FFF542" stroke-width="19" fill="#FF836D" stroke-linecap="round" stroke-linejoin="round"></path>
                    <path d="M1398.56828,944.415253 C1417.71979,879.143794 1413.20937,842.759467 1395.5025,781.520265 C1384.98802,745.155968 1391.68091,754.594405 1377.71993,718.206421 C1376.89958,716.068274 1374.25528,710.982794 1376.49355,711.444749 C1404.09901,717.142227 1436.58265,749.820364 1463.5664,760.005852 C1599.05996,811.150256 1498.91246,770.968934 1567.19574,788.896635 C1599.48207,797.373375 1637.68186,805.482974 1669.59841,816.558023 C1670.5642,816.893151 1671.2605,818.00788 1671.43812,819.016813 C1674.35541,835.587507 1640.27571,861.035502 1626.67532,866.963219 C1603.36164,877.124465 1594.05674,873.513613 1564.7427,880.486564 C1554.86883,882.835269 1545.74548,887.766521 1535.92276,890.321724 C1468.46538,907.869557 1463.82376,903.625797 1409.60595,936.424038 L1398.56828,944.415253 Z" id="Path-33" stroke="#FFF542" stroke-width="19" fill="#FF836D" stroke-linecap="round" stroke-linejoin="round"></path>
                    <path d="M1145.61434,349.415253 C1272.61214,323.795748 1170.71702,353.011912 1265.82851,305.85697 C1273.02623,302.28844 1281.60054,302.509503 1289.13505,299.722001 C1296.59596,296.961728 1303.20902,292.231372 1310.60145,289.292553 C1319.19309,285.876999 1328.52133,284.448264 1336.97479,280.703596 C1342.93913,278.061545 1347.47118,272.679361 1353.53485,270.274148 C1359.53557,267.893906 1366.51553,268.891877 1372.54794,266.593167 C1394.58605,258.195315 1366.57382,262.153222 1385.42802,258.00421 C1422.71263,249.799442 1397.84611,258.174462 1421.61434,249.415253" id="Path-34" stroke="#FFF542" stroke-width="19" fill="#FF836D" stroke-linecap="round" stroke-linejoin="round"></path>
                    <path d="M1421.61434,249.415253 C1415.2609,283.841701 1408.4816,319.824716 1390.80039,350.620519 C1379.70729,369.941636 1364.42693,388.29272 1351.97466,407.050154 C1340.80525,423.875163 1342.16028,431.932777 1333.48658,451.21242 C1322.66045,475.276446 1320.54711,476.958593 1315.61434,506.415253" id="Path-35" stroke="#FFF542" stroke-width="19" fill="#FF836D" stroke-linecap="round" stroke-linejoin="round"></path>
                    <path d="M1315.61434,506.415253 C1267.86477,494.473178 1233.1084,451.393459 1206.22535,413.582568 C1181.22969,378.426284 1195.89807,358.615802 1146.61434,348.415253" id="Path-36" stroke="#FFF542" stroke-width="19" fill="#FF836D" stroke-linecap="round" stroke-linejoin="round"></path>
                    <path d="M730.614343,256.415253 C752.55535,201.918557 727.803821,267.364191 749.107493,192.108877 C755.929933,168.008579 767.194049,146.409218 776.847219,123.515644 C779.486402,117.256527 779.716954,110.16031 782.395165,103.917578 C785.103502,97.6046211 790.449307,92.5823732 792.874617,86.1568301 C795.449831,79.3341334 794.929449,71.6534029 797.189685,64.7214082 C804.134855,43.4210292 811.80067,21.1124332 820.614343,0.415252686" id="Path-37" stroke="#FFF542" stroke-width="19" stroke-linecap="round" stroke-linejoin="round"></path>
                    <path d="M820.914973,0.415252686 C855.907711,56.4512965 848.949042,112.897244 879.074961,160.951328 C986.845501,332.856945 838.454687,79.3713951 918.256426,223.450022 C923.41653,232.766367 934.690356,239.781747 935.398318,250.410211 L937.234949,255.312063 C937.533897,259.800105 940.531263,266.571918 936.622739,268.792158 C930.231105,272.42293 921.893511,268.93631 914.583164,268.179426 C898.191325,266.482282 882.044011,262.606932 865.606038,261.439379 C814.565977,257.814114 766.678885,261.366115 715.614343,266.341232" id="Path-38" stroke="#FFF542" stroke-width="19" fill="#FF836D" stroke-linecap="round" stroke-linejoin="round"></path>
                    <path d="M362.827454,506.449165 C348.086161,470.166888 326.584999,440.369068 308.284558,405.340125 C290.597014,371.484332 288.308145,329.899928 267.837126,297.490562 C261.29706,287.136441 233.623355,263.333447 232.9054,249.693596 C232.707425,245.932423 231.647339,239.318068 235.356759,238.663527 C249.665075,236.13877 258.934424,253.563545 267.837126,259.498101 C299.050374,280.304908 329.200963,295.808816 364.053281,309.133412 C391.727688,319.713778 421.354151,325.046287 450.463998,328.742424 C457.003475,329.572755 490.324451,328.544457 497.039829,335.483022 C500.634606,339.197271 486.191744,364.084105 486.008711,364.283757 C478.461987,372.515765 468.166663,377.83467 460.269436,385.731114 C438.161916,407.836442 420.917019,438.194549 396.534089,458.039344 C379.845028,471.622248 346.592287,490.488881 342.60418,514.415253" id="Path-39" stroke="#FFF542" stroke-width="19" fill="#FF836D" stroke-linecap="round" stroke-linejoin="round"></path>
                    <path d="M270.384344,727.415253 C263.230163,773.596541 257.073391,830.837957 259.347796,878.098724 C260.10838,893.9032 271.853536,943.982779 271.610627,944.25241 C259.896401,957.255323 220.696049,936.067265 209.069895,931.389194 C180.786646,920.008729 154.851881,901.255625 126.295345,890.961941 C94.0107137,879.324402 60.6396282,870.90025 28.1925501,859.7227 C19.1093502,856.593668 9.9551663,853.203461 1.82746355,848.084551 C0.0224314776,846.947723 0.187208869,844.081585 -0.0119610913,841.95921 C-0.327951224,838.591987 -1.38044802,826.055402 2.4406051,821.745583 C27.3768924,793.619601 36.7590202,805.192767 82.7621477,787.443672 C91.819845,783.948998 98.84388,776.238765 107.901098,772.742852 C117.061975,769.206929 127.469892,769.91735 136.718604,766.617511 C142.00379,764.731814 145.363137,758.735014 150.821007,757.429499 C160.369882,755.145421 170.628732,758.15312 180.251801,756.204431 C186.074496,755.025324 190.371008,749.421688 196.193481,748.241487 C204.808674,746.495208 213.938539,749.35125 222.558567,747.628953 C226.616593,746.818152 229.020659,742.087497 232.981974,740.891077 C259.95593,732.744239 239.787762,748.140933 257.507636,731.703065 L270.384344,727.415253 Z" id="Path-40" stroke="#FFF542" stroke-width="19" fill="#FF836D" stroke-linecap="round" stroke-linejoin="round"></path>
                    <path d="M1175.61434,343.25303 C1176.79571,345.750559 1204.37779,415.387166 1210.92415,423.133957 C1280.94178,505.990976 1226.01982,443.136747 1271.56512,478.282414 C1276.88719,482.389265 1297.84792,508.878297 1310.71302,502.400215 C1314.82092,500.331725 1327.68376,480.598629 1329.74961,475.517279 C1339.53123,451.457462 1345.27909,425.68599 1357.07633,402.548876 C1430.91053,257.742863 1355.15746,450.34537 1398.52697,326.354894 C1402.95889,313.684331 1425.25479,273.525871 1412.95793,261.221342 C1403.33878,251.596199 1386.54217,258.79502 1377.1873,262.450275 C1313.0467,287.512117 1252.60347,318.353898 1187.59999,341.814114 L1175.61434,343.25303 Z" id="Path-41" fill="#FFE92A"></path>
                </g>
            </g>
            <g filter="url(#filter-2)" id="Group">
                <g transform="translate(399.000000, 433.000000)">
                    <path d="M148.337832,37.4152527 C128.090177,51.6331853 106.650791,64.8364011 87.5948706,80.0690481 C83.4227502,83.4040976 78.711957,87.8890912 79.3298539,92.5778557 C86.3473258,145.828285 152.969434,153.391746 199.234031,179.380386 C209.908111,185.376436 209.933115,238.865303 193.144019,242.065968 C153.227401,249.675652 105.18128,237.497964 68.6143426,224.145784" id="Path" stroke="#FF83F5" stroke-width="16" stroke-linecap="round" stroke-linejoin="round"></path>
                    <path d="M247.543249,105.415253 C239.127957,109.233331 238.837544,108.246105 232.573722,117.917725 C228.70924,123.884658 214.547644,144.914105 218.215266,155.730298 C227.660449,183.585107 279.135383,191.245267 301.451332,174.941245 C305.167386,172.226298 307.868973,167.99555 309.39438,163.658406 C314.663555,148.676726 317.541022,132.961061 321.614343,117.612387" id="Path-2" stroke="#FF83F5" stroke-width="16" stroke-linecap="round" stroke-linejoin="round"></path>
                    <path d="M359.685973,129.415253 C332.598643,176.709135 318.469979,229.574257 358.562549,276.162694 C375.289985,295.600339 385.022603,349.768245 416.534433,333.363845 L420.104544,334.757739 C421.543701,334.008543 419.509525,332.899214 419.212016,331.969952" id="Path-3" stroke="#FF83F5" stroke-width="16" stroke-linecap="round" stroke-linejoin="round"></path>
                    <path d="M340.749601,192.901242 C341.224855,182.041444 339.990781,171.005313 342.175363,160.321851 C346.223535,140.524704 392.401138,120.382741 399.676849,147.724556 C405.392674,169.204388 383.770132,196.200195 367.390439,208.461276 C354.775985,217.903874 340.321711,225.153199 326.045843,232.352756 C325.074967,232.842385 326.045843,230.325614 326.045843,229.312042" id="Path-4" stroke="#FF83F5" stroke-width="16" stroke-linecap="round" stroke-linejoin="round"></path>
                    <path d="M419.290359,102.38028 C431.816203,109.293275 471.476604,106.061748 466.710969,83.346569 C463.013853,65.7244404 429.031991,75.7747837 421.904578,81.4859945 C398.840715,99.9671168 414.956853,131.712272 435.940834,142.379298 C439.824985,144.353773 455.762731,151.241216 461.459037,147.128407 C467.435776,142.813121 470.229241,135.257699 474.614343,129.322345" id="Path-5" stroke="#FF83F5" stroke-width="16" stroke-linecap="round" stroke-linejoin="round"></path>
                    <path d="M498.614343,129.415253 C499.697651,134.696262 500.133,140.147513 501.864268,145.25828 C506.838624,159.942761 513.577342,174.003637 518.678643,188.645809 C530.020301,221.199565 513.76424,194.317461 513.09106,187.728558 C511.742806,174.532211 510.326806,161.215119 511.228532,147.981896 C511.400641,145.456118 513.901807,143.315591 516.195273,142.17287 C522.940529,138.812044 530.474652,137.281059 537.614343,134.835154" id="Path-6" stroke="#FF83F5" stroke-width="16" stroke-linecap="round" stroke-linejoin="round"></path>
                    <path d="M590.614343,0.415252686 C571.203566,59.285849 582.318962,124.117356 587.582645,184.415253" id="Path-7" stroke="#FF83F5" stroke-width="16" stroke-linecap="round" stroke-linejoin="round"></path>
                    <path d="M564.614343,23.3511625 C579.410845,18.4366319 596.341902,11.954553 612.374294,15.3685622 C655.11983,24.4709876 685.614498,102.910121 662.86537,140.124009 C656.165188,151.084421 646.439594,159.95135 637.290781,168.984585 C625.233636,180.889411 589.609604,174.950162 581.266915,174.818024" id="Path-8" stroke="#FF83F5" stroke-width="16" stroke-linecap="round" stroke-linejoin="round"></path>
                    <path d="M747.614343,212.415253 C744.238657,204.584919 739.848428,197.113636 737.487287,188.924252 C733.981857,176.766017 735.892799,126.78736 705.264996,145.603387 C696.528275,150.970745 688.938622,158.059698 681.509585,165.109512 C678.799985,167.680798 676.329248,170.756234 675.065142,174.261658 C670.231192,187.666425 705.634278,210.192148 716.187417,189.210214" id="Path-9" stroke="#FF83F5" stroke-width="16" stroke-linecap="round" stroke-linejoin="round"></path>
                    <path d="M741.005386,105.415253 C744.792593,112.576529 748.214808,119.942849 752.367007,126.899082 C758.971361,137.963441 765.980991,148.790324 773.247973,159.431676 C795.063263,191.376738 803.934594,163.681951 814.088323,148.996649 C852.123308,93.9867839 812.716126,159.643095 834.662291,116.771219 C834.860079,116.384839 835.511155,117.263977 835.58343,117.691937 C838.44071,134.610606 848.107376,183.255641 845.009407,206.039784 C843.815079,214.823524 838.726786,222.649431 836.411423,231.206523 C830.347962,253.615795 825.399816,276.181495 802.326337,288.598839 C786.731585,296.991393 767.451416,293.359412 751.296275,297.750119 C738.365371,301.264532 707.400375,321.312849 686.488924,316.741027 C651.65427,309.125208 628.062934,291.300729 599.586398,272.239649 C582.261777,260.643225 594.853534,274.278114 575.3278,265.18081 C363.486232,166.480952 779.610008,349.550384 509.614343,232.034955" id="Path-10" stroke="#FF83F5" stroke-width="16" stroke-linecap="round" stroke-linejoin="round"></path>
                    <path d="M145.018984,310.415253 C106.912509,316.081258 121.859988,312.814587 60.9747117,338.155516 C10.9153865,358.9906 63.7618168,391.616622 96.0590865,403.855497 C112.692599,410.158676 130.289985,415.043691 147.059745,421.154238 C149.333546,421.982763 152.1745,422.871847 153.021502,424.6114 C156.385659,431.520627 154.182826,440.816432 148.649547,446.794927 C121.279767,476.366926 65.2419872,469.481602 25.2569152,461.658222 C17.134123,460.068937 9.87809485,456.653843 2.60219091,453.59151 C-1.12306503,452.023599 1.37621313,449.493323 2.20474045,447.541476" id="Path-11" stroke="#FF83F5" stroke-width="16" stroke-linecap="round" stroke-linejoin="round"></path>
                    <path d="M195.730285,405.140766 C190.302661,419.067011 184.086367,432.715193 179.447413,446.919503 C168.993128,478.930145 188.708372,494.121202 218.28344,474.993759 C242.041601,459.628357 252.194842,429.186104 253.614343,402.415253" id="Path-12" stroke="#FF83F5" stroke-width="16" stroke-linecap="round" stroke-linejoin="round"></path>
                    <path d="M285.016396,415.415253 C284.607936,426.8554 284.649975,438.320544 283.791017,449.735696 C283.218696,457.341578 281.280671,464.804475 280.727568,472.41178 C280.46051,476.084869 281.770445,479.785574 281.340258,483.443138 C281.264798,484.084718 279.514278,483.476176 279.502189,482.830285 L276.745158,473.943913 C276.595799,465.964513 276.099958,457.574918 278.889499,450.097789 C282.704277,439.872599 289.197068,430.709772 296.044812,422.21282 C298.411595,419.276022 312.236274,419.303659 313.506543,421.906394 C319.070365,433.306468 314.829679,448.578922 322.084199,458.984603 C325.091078,463.297587 326.705693,449.486984 329.742821,445.195258 C333.172888,440.348272 336.751738,435.426345 341.384073,431.712192 C346.136303,427.901909 351.650141,424.879754 357.439646,422.988263 C362.018423,421.492329 367.023056,421.630604 371.838076,421.762556 C374.561845,421.837199 377.365986,422.382233 379.803116,423.601116 C403.625049,435.515185 385.175019,476.631466 391.857239,497.924462 C392.612593,500.33141 393.695308,493.225872 394.614343,490.876576" id="Path-13" stroke="#FF83F5" stroke-width="16" stroke-linecap="round" stroke-linejoin="round"></path>
                    <path d="M422.614343,386.415253 C422.698519,394.403964 424.794153,490.841026 425.217947,481.484322 C425.824359,468.095707 423.990398,454.692867 424.151364,441.291533 C424.338238,425.733269 446.381107,383.111418 466.102871,400.833216 C470.385386,404.681445 473.999771,419.123356 474.365534,421.285512 C476.243587,432.387358 466.594832,453.223446 477.746908,454.89362 C489.921653,456.716953 491.624009,434.548264 499.423671,425.038308 C510.98294,410.944345 550.906848,392.914749 567.033665,408.977101 C582.305706,424.188094 574.901329,472.607988 575.873735,488.779923 C576.179099,493.858393 577.304062,498.895393 578.784744,503.763483 C579.231369,505.231869 580.186885,506.740123 581.551383,507.446527 C583.198857,508.299428 585.378934,508.790244 587.084661,508.060368 C590.720224,506.50472 593.437782,503.354207 596.614343,501.001126" id="Path-14" stroke="#FF83F5" stroke-width="16" stroke-linecap="round" stroke-linejoin="round"></path>
                    <path d="M609.387898,489.666295 C624.750593,487.274194 636.493492,482.577816 644.988996,468.468751 C653.530715,454.282932 656.119714,428.610278 625.653681,435.597212 C604.892122,440.358568 604.204533,475.774637 606.53733,490.915543 C615.67114,550.1981 667.133937,564.539862 708.254762,525.789048 C710.325708,523.837462 712.754206,521.785344 713.472162,519.030431 C714.105216,516.6013 712.449108,514.115127 711.937581,511.657475" id="Path-15" stroke="#FF83F5" stroke-width="16" stroke-linecap="round" stroke-linejoin="round"></path>
                    <path d="M714.614343,401.415253 C724.434569,429.059378 733.015517,457.336849 744.075022,484.347629 C749.399807,497.352424 756.668809,509.190101 763.626659,521.118705 C799.224059,582.147221 760.630867,528.352207 755.270664,509.025368 C750.805423,492.925417 737.173234,442.310746 738.138675,417.160178 C738.360086,411.392229 745.916717,407.562711 749.570753,407.143119 C766.864698,405.15726 784.266478,404.739048 801.614343,403.537012" id="Path-16" stroke="#FF83F5" stroke-width="16" stroke-linecap="round" stroke-linejoin="round"></path>
                    <path d="M175.614343,526.434187 C140.670094,525.854356 97.3188128,538.544553 92.6370152,571.052535 C88.6650495,598.631811 145.157238,605.378972 161.258394,626.958948 C185.973936,660.084569 106.527599,688.876999 75.3908221,683.839954 C61.9447452,681.664761 49.1921539,677.359006 36.2876063,673.676303 C33.0563595,672.754169 29.7111428,671.773735 27.0643372,670.04853 C24.6750947,668.491207 23.4310075,666.09096 21.6143426,664.112175" id="Path-17" stroke="#FF83F5" stroke-width="16" stroke-linecap="round" stroke-linejoin="round"></path>
                    <path d="M230.435541,670.721948 C243.712845,676.02462 269.593345,679.319437 281.693053,667.970497 C295.98335,654.566891 279.802749,627.760164 261.347075,629.495613 C254.168993,630.170592 247.030329,632.090791 240.426579,634.979827 C236.588399,636.65897 212.878437,646.136822 208.786429,657.103781 C205.230536,666.633903 210.348648,673.431305 216.329736,681.23803 C234.700898,705.216714 266.817139,719.499897 296.649242,718.350779 C300.749519,718.192839 304.879509,717.434783 308.74194,716.051675 C311.993429,714.887341 315.128569,713.141943 317.681964,710.819117 C319.872946,708.825978 320.970216,705.894328 322.614343,703.431933" id="Path-18" stroke="#FF83F5" stroke-width="16" stroke-linecap="round" stroke-linejoin="round"></path>
                    <path d="M345.614343,644.479768 C404.855711,812.659072 336.870483,626.12335 386.54474,747.421036 C387.681814,750.197614 389.262422,759.640051 388.053565,756.932653 C384.452489,748.867559 325.432217,644.804224 362.194761,614.850462 C370.313649,608.235271 393.803182,609.636065 399.614343,609.415253" id="Path-19" stroke="#FF83F5" stroke-width="16" stroke-linecap="round" stroke-linejoin="round"></path>
                    <path d="M455.899954,738.672782 C442.21641,709.119178 438.241391,677.20945 438.983081,644.635287" id="Path-20" stroke="#FF83F5" stroke-width="16" stroke-linecap="round" stroke-linejoin="round" transform="translate(447.398925, 691.654034) rotate(23.000000) translate(-447.398925, -691.654034) "></path>
                    <path d="M519.134685,692.452453 C546.339008,706.378797 587.200122,688.17966 567.879676,651.749579 C550.842604,619.624961 470.389028,662.354939 507.107902,698.304542 C519.700658,710.633475 532.417968,722.993288 546.600322,733.461801 C556.469919,740.74691 569.300125,743.665258 581.312914,743.398594 C583.446223,743.351237 585.515176,742.472456 587.44446,741.562394 C593.862687,738.534852 600.19549,735.290629 606.271034,731.625601 C610.277145,729.208942 613.83324,726.116952 617.614343,723.362627" id="Path-22" stroke="#FF83F5" stroke-width="16" stroke-linecap="round" stroke-linejoin="round"></path>
                    <path d="M693.784008,582.415253 C670.459393,591.818189 648.996773,598.740449 646.194747,625.532436 C644.998229,636.973124 645.059551,643.981288 656.326587,650.607855 C675.518965,661.895614 696.547332,669.806403 716.071152,680.515454 C721.844868,683.682407 727.69078,687.199809 732.036653,692.135741 C733.88949,694.240146 733.622855,697.593723 733.571769,700.392209 C733.292125,715.711191 718.94288,730.495669 703.4832,731.277735 C668.42757,733.05111 642.773641,717.568122 620.614343,690.899278" id="Path-23" stroke="#FF83F5" stroke-width="16" stroke-linecap="round" stroke-linejoin="round"></path>
                    <path d="M477.569007,606.080373 C467.359602,595.642959 416.851588,551.857285 437.543003,531.246163 C449.392045,519.4431 475.264493,537.398755 478.800577,551.488204 C479.449671,554.074505 480.411595,560.941115 478.184792,559.462341 L475.721653,563.142712 C468.02378,558.03071 479.019372,527.989368 490.500486,527.565792 C515.98507,526.625581 524.561026,563.841717 514.516089,581.544567 C511.683662,586.536338 485.288973,600.424492 480.032146,605.466978 C478.488504,606.94768 479.30793,609.782914 478.184792,611.60093 C475.967034,615.190802 472.847991,618.143812 470.179591,621.415253" id="Path-24" stroke="#FF83F5" stroke-width="16"></path>
                </g>
            </g>
        </g>
        <g id="Group-3" transform="translate(1628.257033, 2443.146576)">
            <path d="M717.144721,1399 C652.003505,1386.79135 507.278914,1329.11941 458.053869,1297.16904 C340.891774,1221.12295 424.204898,1279.08267 359.951622,1221.7387 C342.501129,1206.1647 362.937199,1242.41562 337.312642,1201.62394 C315.955396,1167.62539 303.547723,1134.78936 287.003797,1098.53581 C270.881873,1063.20702 256.50708,1043.04353 249.272164,1002.99071 C241.695586,961.046441 236.900997,918.551901 234.17951,876.016309 C231.934569,840.928907 232.120412,787.446839 241.725837,749.041903 C249.013161,719.905325 261.56965,695.705627 275.684307,669.840046 C288.198757,646.906898 298.211721,622.849419 313.415941,601.95274 C373.531605,519.329768 473.244708,435.783119 568.733328,402.062339 C651.667839,372.774907 695.782152,368.759848 778.772754,371.890203 C793.169989,372.433258 807.222752,376.52534 821.535272,378.176064 C862.926095,382.949845 908.034102,388.053232 947.307384,403.319511 C950.359115,404.505777 951.987845,408.022296 954.853711,409.605373 C967.981634,416.857112 981.849562,422.696032 995.100787,429.72013 C1061.45029,464.890121 1111.76898,506.628338 1164.89314,562.980398 C1167.08279,565.303097 1166.9564,569.0854 1168.6663,571.780604 C1299.76871,778.428803 1138.69393,515.33345 1208.91338,639.66791 C1219.09378,657.693896 1232.3528,673.954585 1241.61413,692.469148 C1245.07127,699.380421 1245.34785,707.480772 1246.64501,715.09825 C1260.50961,796.517203 1262.91522,788.249107 1261.73766,847.101345 C1261.13363,877.289747 1255.50806,903.414611 1249.16045,931.331892 C1236.16726,988.477013 1224.06998,1048.4114 1201.36705,1102.30733 C1188.83157,1132.06611 1159.09229,1169.29043 1142.25416,1195.33808 C1129.89916,1214.45056 1119.89673,1231.30825 1104.52252,1248.13932 C1086.74508,1267.60136 1090.44303,1258.24292 1073.0795,1272.02559 C1038.7526,1299.2733 1041.44822,1297.41745 1005.16256,1312.25511 C917.400894,1348.14194 858.372706,1370.2706 766.195543,1380.14241 L717.144721,1399 Z" id="Path-44" fill="#FFE92A"></path>
            <path d="M370,1018.94155 C385.423463,1035.82157 393.660331,1057.15085 412.152119,1071.12251 C479.057862,1121.67384 561.92817,1157.41206 646.818898,1161.65359 C720.004773,1165.31029 660.4969,1160.73316 722.314961,1157.25293 C756.041328,1155.3542 790.032421,1157.83705 823.605663,1154.10934 C869.556579,1149.0073 844.635446,1144.40033 870.790551,1135.87753 C923.017148,1118.85919 909.550669,1130.02475 958.240308,1104.44313 C1012.15753,1076.11492 1049.94363,1005.86598 1063.30551,949.785858 C1066.49994,936.378756 1065.19153,921.980881 1069.59685,908.920982 C1077.6137,885.154434 1122.64204,878.310836 1140.68913,891.946554 C1147.32988,896.96406 1154.34827,901.807383 1159.56314,908.292444 C1163.96911,913.771565 1165.85438,920.866206 1169,927.153087" id="Path-21" stroke="#202020" stroke-width="38" stroke-linecap="round" stroke-linejoin="round"></path>
            <path d="M370.019205,823.019576 C368.748862,887.814624 430.730075,887.201912 487.383184,890.425163 C519.233271,892.237258 526.307594,894.391652 550.627579,884.88098 C566.745115,878.577992 574.762165,857.894748 575.170181,842.570114 C575.32571,836.728623 579.763757,827.849929 574.226235,825.062169 C565.522165,820.680273 515.853757,819.636595 501.856119,820.101585 C365.046586,824.646291 478.213091,823.894973 380.401028,823.894973 L370.019205,823.019576 Z" id="Path-46" fill="#EEEEEE"></path>
            <path d="M438.956715,845.046547 C439.136048,849.010334 438.762764,863.420655 442.100682,868.104978 C462.647596,896.93983 511.417119,919.50102 537.991657,883.266686 C541.109918,879.014944 542.718859,873.77987 544.27959,868.736716 C546.611778,861.200771 544.011428,851.199169 549.624333,845.678285 C552.174967,843.169466 613.322761,817.262659 610.931678,799.245553 C610.702409,797.517988 607.943999,797.184733 606.215728,797.034471 C596.921012,796.226354 587.52357,795.532331 578.234427,796.402733 C524.437971,801.443514 566.60459,804.681865 518.184669,803.983587 C483.483988,803.483159 448.789339,802.374641 414.119381,800.824898 C399.312488,800.163032 384.610995,797.35034 369.789454,797.35034 C367.667439,797.35034 365.375927,798.909194 364.444712,800.824898 C362.961596,803.875974 364.035292,807.645881 363.187125,810.932703 C362.551543,813.395712 360.31107,815.351658 360.043159,817.88182 C358.253216,834.786072 412.64806,836.885277 428.581702,841.887858 L438.956715,845.046547 Z" id="Path-45" fill="#202020"></path>
            <path d="M662.213116,835.990218 C677.202634,859.957182 677.815575,865.988724 696.14715,882.055486 C702.331513,887.475789 721.321803,891.449099 724.739716,891.76993 C776.627183,896.640481 819.948454,899.014916 870.530382,889.262977 C892.581578,885.011618 901.129538,875.712102 910.434293,858.552798 C911.129598,857.270555 926.454151,838.120258 924.887678,829.722835 C924.494613,827.615725 922.520646,825.720286 920.488821,825.022297 C912.797923,822.380256 904.692492,820.916235 896.60924,820.00839 C881.384878,818.298515 866.047992,817.654725 850.734548,817.188068 C798.372992,815.592417 750.916447,824.473298 699.343103,831.60305 C698.535902,831.714641 668.022428,829.486474 659.439193,836.930326 C658.723515,837.551 658.920789,839.297705 659.753397,839.750648" id="Path-48" fill="#EEEEEE"></path>
            <path d="M688.648022,844.165432 C673.173929,843.285788 656.374435,842.86868 645.345991,829.984722 C644.489383,828.983991 632.613223,817.217979 638.756552,812.022491 C645.127636,806.634387 670.974739,807.605288 673.272663,807.295587 C689.582693,805.09742 705.517967,800.256916 721.909003,798.787162 C786.516707,792.993908 853.267201,797.768014 918.023424,799.417416 C927.130596,799.649384 953.336742,799.946389 961.953096,809.186349 C963.164606,810.485542 964.368222,829.943654 959.128975,831.24523 C936.74086,836.807064 856.638972,832.288335 838.008801,856.45538 C834.132485,861.483735 832.472375,868.074876 828.281534,872.841978 C822.101464,879.871835 815.088696,886.326124 807.258084,891.434463 C802.625846,894.456327 797.040302,896.029568 791.568942,896.79162 C782.553127,898.047344 773.315778,898.43579 764.269836,897.421874 C749.754908,895.794965 734.72882,894.636925 721.281588,888.913448 C712.058134,884.987717 705.540835,876.406241 698.375441,869.375582 C696.361005,867.399025 694.985066,864.770722 693.982481,862.127664 C692.44724,858.080393 691.890595,853.72428 690.844653,849.522589 L688.648022,844.165432 Z" id="Path-47" fill="#202020"></path>
            <path d="M236.446246,433.053879 C209.945098,433.053879 203.123097,430.995906 177.972128,438.712564 C168.446871,441.635042 159.896749,447.32649 150.307025,450.029936 C46.1208076,479.401138 83.6366168,455.705065 30.8440804,493.413192 C16.5096512,503.651845 26.4894747,490.285039 13.2390149,507.245535 C-7.74923881,534.110352 0.700401821,571.523381 8.20899622,601.556962 C31.2233059,693.611759 103.434103,765.904101 193.691087,793.32353 C266.771497,815.524839 330.210071,825.398016 405.580625,808.413358 C413.850394,806.549777 422.695724,807.342894 430.730719,804.640901 C483.705806,786.826539 469.176228,784.789694 517.498541,760.628902 C696.517076,671.120986 266.228848,900.59516 587.290051,729.820503 C603.027226,721.449791 671.290308,680.601963 699.207967,670.089932 C719.742855,662.357788 741.439643,658.035645 762.083352,650.598904 C775.236863,645.86045 787.294597,638.391346 800.437245,633.622847 C838.075509,619.966692 823.759147,628.28667 856.396203,621.676733 C876.604868,617.5839 881.415252,612.619668 900.408866,613.503076 C921.620331,614.489637 942.775015,616.513488 963.913154,618.533019 C975.687585,619.657944 989.992857,615.415156 999.123285,622.934219 L1004.1533,625.44919 C1053.76902,666.308578 1110.25532,805.992506 1200.32418,795.209759 C1225.13324,792.2397 1250.32649,790.777162 1274.51681,784.52113 C1307.40548,776.015556 1303.76396,768.538834 1326.0745,754.341474 C1393.74322,711.280347 1480.51469,648.989825 1493.95153,563.203648 C1496.23957,548.59588 1497.3273,534.645948 1493.32293,520.449134 C1479.79548,472.489974 1378.20787,453.44055 1339.27845,446.886221 C1318.232,443.342749 1296.67531,443.032003 1275.77431,438.712564 C1233.7098,430.019431 1192.80963,416.130015 1150.65124,407.904165 C1115.36276,401.018756 1079.22336,399.381289 1043.76319,393.443079 C1035.32869,392.030625 1025.74721,391.449321 1019.24185,385.898165 C974.175824,347.442402 977.657754,267.951389 970.199169,219.910053 C965.161238,187.460342 951.922072,150.163863 939.390304,121.197426 C935.065404,111.200677 927.716144,102.742656 923.042743,92.9039983 C915.745048,77.5405541 910.899018,61.0873992 903.551421,45.7477566 C898.924208,36.0874827 896.541732,23.3305234 887.20386,18.082845 C829.422728,-14.388878 757.759262,5.22483212 698.578159,13.0529022 C622.979794,23.0525349 536.114625,28.5272166 489.832231,101.076901 C481.19762,114.612034 474.160909,178.509828 472.227166,186.585928 C469.124835,199.542526 462.683483,211.500286 459.023367,224.310499 C453.870289,242.345999 451.054623,260.99925 445.819568,279.011127 C424.733697,351.559765 419.134191,405.730513 340.817927,428.652 C331.192311,431.469211 321.117021,432.424457 311.266567,434.310685 L236.446246,433.053879 Z" id="Path-42" fill="#FFBF00"></path>
            <path d="M387.557796,208 C375.891148,234.177215 361.52496,259.588374 343.558243,281.728407 C336.732229,290.13997 327.543484,296.463793 320.929901,305.044228 C315.231504,312.437305 345.052671,317.794139 340.415418,328.360049 C335.203309,340.235759 320.351388,330.946495 314.644251,337.812409 C312.926516,339.878912 318.341538,341.778423 319.672771,344.113982 C321.720385,347.706385 324.022801,351.375557 324.701291,355.456814 C326.149627,364.168842 326.890384,373.140781 325.958421,381.923422 C324.654747,394.209003 302.515855,446.76101 306.472905,456.281987 C308.132257,460.27452 313.724104,461.128823 317.787076,462.58356 C323.04447,464.465957 326.738028,460.866739 331.615507,460.062931 C344.335066,457.966747 357.266701,457.283614 369.957975,455.021672 C376.163758,453.915627 381.948913,450.889977 388.186362,449.980413 C393.577197,449.194305 399.304436,451.526827 404.529053,449.980413 C421.582324,444.932884 437.049028,435.200735 454.185692,430.445536 C479.602402,423.392733 473.819351,435.880773 497.55668,443.048683 C507.038967,445.912028 517.678144,443.139835 527.099238,446.199469 C547.350236,452.77627 580.234922,515.428675 591.841438,530.010394 C601.451921,542.084419 613.31146,552.186616 624.526821,562.778575 C627.790651,565.860986 630.754442,571.453785 635.212427,570.97062 C650.32913,569.332242 678.776623,517.41977 686.754761,501.023157 C691.56752,491.132008 689.023681,471.787171 699.954627,470.775605 L704.983147,466.364504 C744.065282,462.747783 783.421744,462.814426 822.524812,459.432773 C871.203949,455.222977 989.094711,451.915864 1008.58022,386.334523 C1010.52742,379.780941 1005.19529,341.832265 1002.92313,337.812409 C1001.54498,335.374216 997.288758,338.526085 994.751787,339.702881 C973.32695,349.640977 966.725329,358.495655 946.352278,360.498073 C940.513663,361.071936 934.573133,359.763544 928.752456,360.498073 C904.555038,363.551618 880.68483,368.950583 856.467475,371.840905 C845.432841,373.15788 834.26608,373.101219 823.153528,373.101219 C794.864996,373.101219 766.576485,372.56785 738.297246,371.840905 C734.416942,371.741158 711.785915,369.985807 710.011818,365.539332 C707.656261,359.63552 715.9913,320.513142 707.497558,312.606116 C700.478473,306.071883 668.143646,314.491819 662.240875,317.017217 C633.736335,329.21239 582.331952,366.132891 542.18495,360.498073 C538.731494,360.013364 536.641525,356.076981 533.385039,354.826657 C523.19278,350.913351 495.379978,351.468508 487.49979,341.593353 C462.020745,309.663973 448.064057,264.785041 418.357635,236.35708 C413.836177,232.030209 408.719537,228.375087 403.900488,224.38409 L387.557796,208 Z" id="Path-43" fill="#0AA5C5"></path>
        </g>
    </g>
</svg>